<?xml version="1.0" encoding="iso-8859-1"?>
<!-- Uploaded to: SVG Repo, www.svgrepo.com, Generator: SVG Repo Mixer Tools -->
<svg height="800px" width="800px" version="1.1" id="Layer_1" xmlns="http://www.w3.org/2000/svg" xmlns:xlink="http://www.w3.org/1999/xlink" 
	 viewBox="0 0 512 512" xml:space="preserve">
<path style="fill:#F6D86E;" d="M153.306,203.406c-4.416-8.254-1.305-18.523,6.949-22.939l132.797-71.048L96.015,138.073
	c-9.267,1.347-17.863-5.071-19.21-14.332c-1.347-9.263,5.07-17.864,14.332-19.21l292.772-42.577
	c8.163-1.19,15.966,3.656,18.539,11.475c2.572,7.819-0.846,16.357-8.105,20.24L176.244,210.355
	C167.994,214.769,157.724,211.663,153.306,203.406z"/>
<g>
	<path style="fill:#FBB071;" d="M402.446,73.428c-2.573-7.819-10.377-12.665-18.539-11.475L256,80.554v34.252l37.052-5.388
		L256,129.242v38.443l138.342-74.017C401.6,89.785,405.018,81.248,402.446,73.428z"/>
	<path style="fill:#FBB071;" d="M495.052,167.239h-37.096c-9.36,0-16.948-7.588-16.948-16.948s7.588-16.948,16.948-16.948h37.096
		c9.36,0,16.948,7.588,16.948,16.948S504.411,167.239,495.052,167.239z"/>
</g>
<path style="fill:#16A5D9;" d="M375.409,218.818c-5.147-32.558-20.231-62.134-43.623-85.527c-6.618-6.618-6.619-17.348-0.002-23.966
	l42.573-42.585c24.736-24.735,63.69-26.224,90.231-4.799c31.199,25.201,33.702,71.949,5.356,100.323h0.001l-65.804,65.883
	C394.353,237.947,377.57,232.478,375.409,218.818z"/>
<path style="fill:#4AD0FF;" d="M5.039,436.07l82.955-82.955c6.618-6.619,17.349-6.619,23.968,0
	c17.154,17.154,37.409,29.735,60.203,37.396c15.784,5.305,15.184,27.95-0.876,32.398L21.546,464.387
	C4.884,469.002-7.302,448.409,5.039,436.07z"/>
<path style="fill:#16A5D9;" d="M87.994,377.083c-6.619-6.619-6.619-17.349,0-23.968l56.686-56.686
	c6.617-6.618,17.347-6.619,23.966-0.002c29.351,29.342,77.106,29.342,106.457,0c29.342-29.352,29.342-77.107-0.002-106.451
	c-6.619-6.619-6.619-17.349,0-23.968l56.686-56.686c6.612-6.614,17.35-6.618,23.968,0c74.285,74.287,73.604,194.145-0.012,267.76
	C281.814,451.01,161.921,451.01,87.994,377.083z"/>
<path style="fill:#325763;" d="M355.753,109.323c-6.617-6.618-17.356-6.614-23.968,0L275.1,166.009
	c-6.619,6.619-6.619,17.349,0,23.968c29.344,29.345,29.344,77.1,0.002,106.451c-5.751,5.749-12.215,10.355-19.103,13.851v119.153
	c36.539-6.662,71.496-24.102,99.741-52.348C429.358,303.467,430.039,183.61,355.753,109.323z"/>
<path style="fill:#4AD0FF;" d="M144.68,320.4c-6.617-6.615-6.62-17.353-0.001-23.97l130.422-130.421
	c6.618-6.618,17.349-6.619,23.968,0c42.558,42.558,42.559,111.815,0.002,154.388c-0.001,0.001-0.002,0.002-0.005,0.003
	C256.501,362.949,187.246,362.95,144.68,320.4z M287.085,308.413h0.011H287.085z"/>
<path style="fill:#16A5D9;" d="M299.068,166.009c-6.618-6.619-17.349-6.618-23.968,0l-19.1,19.1V346.85
	c15.754-5.157,30.565-13.953,43.066-26.45c0.002-0.001,0.003-0.002,0.005-0.003C341.627,277.824,341.626,208.566,299.068,166.009z
	 M287.085,308.413h0.011H287.085z"/>
<circle style="fill:#28464F;" cx="435.959" cy="109.156" r="18.474"/>
</svg>